<svg version="1.1" id="Layer_1" xmlns="http://www.w3.org/2000/svg" xmlns:xlink="http://www.w3.org/1999/xlink" x="0px" y="0px" width="100%" viewBox="0 0 800 800" enable-background="new 0 0 800 800" xml:space="preserve">
  <path fill="#000000" opacity="0.000000" stroke="none" d="
M801.000000,426.000000
	C801.000000,550.930115 801.000000,675.860168 801.000000,801.000000
	C668.644104,801.000000 536.288086,801.000000 403.180664,800.721985
	C403.655579,799.096069 404.829041,797.695374 406.115784,796.407898
	C444.973267,757.529053 483.830414,718.649841 522.760925,679.844299
	C524.002625,678.606506 526.015198,678.142151 527.668396,677.317200
	C527.633972,676.208374 527.599487,675.099487 527.565063,673.990601
	C515.018616,662.941223 502.472137,651.891785 490.256866,641.133972
	C469.123016,661.138489 447.185120,681.903992 425.755829,702.188110
	C425.755829,677.789612 425.755829,651.920959 425.755829,626.360596
	C408.865051,626.360596 392.463898,626.360596 375.715363,626.360596
	C375.715363,651.760132 375.715363,676.799805 375.715363,703.572388
	C353.477448,681.646423 332.286285,660.752563 310.707947,639.476929
	C298.932373,651.658875 287.332367,663.659180 274.700958,676.726501
	C276.533478,677.983032 278.239655,678.807312 279.506470,680.071716
	C318.294159,718.784851 357.046082,757.533936 395.758270,796.322571
	C397.077087,797.643921 397.929962,799.430359 399.000000,801.000000
	C266.407532,801.000000 133.815048,801.000000 1.000000,801.000000
	C1.000000,676.310791 1.000000,551.621399 1.468657,426.466034
	C27.161346,426.000000 52.385376,426.000000 77.609406,426.000000
	C78.349419,426.933807 79.089432,427.867584 79.829445,428.801392
	C57.881660,449.265411 35.933876,469.729462 13.647633,490.509064
	C26.742323,503.154449 38.754105,514.754089 50.243683,525.849426
	C92.296562,483.793488 133.954544,442.132507 175.051758,401.032318
	C133.739761,359.722717 92.079033,318.064423 50.162968,276.150787
	C38.552185,287.405762 26.563627,299.026947 15.420830,309.828247
	C36.718067,332.470947 57.573330,354.643738 77.660583,376.000000
	C53.277649,376.000000 27.138824,376.000000 1.000000,376.000000
	C1.000000,251.069901 1.000000,126.139801 1.000000,1.000000
	C133.355896,1.000000 265.711914,1.000000 398.819336,1.278029
	C398.344147,2.904253 397.170410,4.305242 395.883362,5.592978
	C357.019196,44.478779 318.155762,83.365364 279.215820,122.175186
	C277.979492,123.407356 275.938782,123.832413 274.273041,124.633736
	C274.348877,125.751495 274.424683,126.869263 274.500519,127.987030
	C287.015381,139.067062 299.530243,150.147095 312.143280,161.314056
	C311.982941,161.467224 312.586487,160.905106 313.174347,160.327042
	C332.489258,141.333603 351.791626,122.327400 371.143677,103.371887
	C372.299683,102.239571 373.851288,101.511116 376.155762,99.966888
	C376.155762,126.115372 376.155762,150.991531 376.155762,175.676422
	C393.056061,175.676422 409.458191,175.676422 426.200073,175.676422
	C426.200073,149.961044 426.200073,124.567955 426.200073,99.174858
	C426.576752,98.904228 426.953461,98.633606 427.330139,98.362976
	C448.434662,119.678459 469.539154,140.993942 491.073090,162.743164
	C503.115356,150.305664 514.808350,138.228943 526.660095,125.988190
	C524.799744,124.199806 523.459229,122.954346 522.166016,121.661537
	C483.285065,82.792633 444.402649,43.925266 405.563690,5.014507
	C404.468109,3.916911 403.843964,2.348750 403.000000,1.000004
	C535.592468,1.000000 668.184937,1.000000 801.000000,1.000000
	C801.000000,125.689224 801.000000,250.378571 800.531372,375.533966
	C774.172058,376.000000 748.281372,376.000000 724.559753,376.000000
	C744.636658,354.562653 765.482544,332.304108 784.780334,311.698669
	C774.250488,299.773987 763.178101,287.234955 752.710876,275.381287
	C709.751648,318.340912 668.092224,360.000671 627.126038,400.967194
	C668.391357,442.232300 710.051025,483.891846 751.928772,525.769409
	C763.492615,514.552734 775.477783,502.927338 787.475281,491.290009
	C765.981384,469.436798 744.988281,448.092834 723.258667,426.000000
	C750.055664,426.000000 775.527832,426.000000 801.000000,426.000000
z"/>
  <path fill="#000000" opacity="1.000000" stroke="none" d="
M402.600006,1.000004
	C403.843964,2.348750 404.468109,3.916911 405.563690,5.014507
	C444.402649,43.925266 483.285065,82.792633 522.166016,121.661537
	C523.459229,122.954346 524.799744,124.199806 526.660095,125.988190
	C514.808350,138.228943 503.115356,150.305664 491.073090,162.743164
	C469.539154,140.993942 448.434662,119.678459 427.330139,98.362976
	C426.953461,98.633606 426.576752,98.904228 426.200073,99.174858
	C426.200073,124.567955 426.200073,149.961044 426.200073,175.676422
	C409.458191,175.676422 393.056061,175.676422 376.155762,175.676422
	C376.155762,150.991531 376.155762,126.115372 376.155762,99.966888
	C373.851288,101.511116 372.299683,102.239571 371.143677,103.371887
	C351.791626,122.327400 332.489258,141.333603 313.174347,160.327042
	C312.586487,160.905106 311.982941,161.467224 312.143280,161.314056
	C299.530243,150.147095 287.015381,139.067062 274.500519,127.987030
	C274.424683,126.869263 274.348877,125.751495 274.273041,124.633736
	C275.938782,123.832413 277.979492,123.407356 279.215820,122.175186
	C318.155762,83.365364 357.019196,44.478779 395.883362,5.592978
	C397.170410,4.305242 398.344147,2.904253 399.285339,1.278029
	C400.066681,1.000000 401.133331,1.000000 402.600006,1.000004
z"/>
  <path fill="#000000" opacity="1.000000" stroke="none" d="
M399.399994,801.000000
	C397.929962,799.430359 397.077087,797.643921 395.758270,796.322571
	C357.046082,757.533936 318.294159,718.784851 279.506470,680.071716
	C278.239655,678.807312 276.533478,677.983032 274.700958,676.726501
	C287.332367,663.659180 298.932373,651.658875 310.707947,639.476929
	C332.286285,660.752563 353.477448,681.646423 375.715363,703.572388
	C375.715363,676.799805 375.715363,651.760132 375.715363,626.360596
	C392.463898,626.360596 408.865051,626.360596 425.755829,626.360596
	C425.755829,651.920959 425.755829,677.789612 425.755829,702.188110
	C447.185120,681.903992 469.123016,661.138489 490.256866,641.133972
	C502.472137,651.891785 515.018616,662.941223 527.565063,673.990601
	C527.599487,675.099487 527.633972,676.208374 527.668396,677.317200
	C526.015198,678.142151 524.002625,678.606506 522.760925,679.844299
	C483.830414,718.649841 444.973267,757.529053 406.115784,796.407898
	C404.829041,797.695374 403.655579,799.096069 402.714630,800.721985
	C401.933319,801.000000 400.866669,801.000000 399.399994,801.000000
z"/>
  <path fill="#000000" opacity="1.000000" stroke="none" d="
M801.000000,425.531342
	C775.527832,426.000000 750.055664,426.000000 723.258667,426.000000
	C744.988281,448.092834 765.981384,469.436798 787.475281,491.290009
	C775.477783,502.927338 763.492615,514.552734 751.928772,525.769409
	C710.051025,483.891846 668.391357,442.232300 627.126038,400.967194
	C668.092224,360.000671 709.751648,318.340912 752.710876,275.381287
	C763.178101,287.234955 774.250488,299.773987 784.780334,311.698669
	C765.482544,332.304108 744.636658,354.562653 724.559753,376.000000
	C748.281372,376.000000 774.172058,376.000000 800.531372,376.000000
	C801.000000,392.354218 801.000000,408.708466 801.000000,425.531342
z"/>
  <path fill="#000000" opacity="1.000000" stroke="none" d="
M1.000000,376.468658
	C27.138824,376.000000 53.277649,376.000000 77.660583,376.000000
	C57.573330,354.643738 36.718067,332.470947 15.420830,309.828247
	C26.563627,299.026947 38.552185,287.405762 50.162968,276.150787
	C92.079033,318.064423 133.739761,359.722717 175.051758,401.032318
	C133.954544,442.132507 92.296562,483.793488 50.243683,525.849426
	C38.754105,514.754089 26.742323,503.154449 13.647633,490.509064
	C35.933876,469.729462 57.881660,449.265411 79.829445,428.801392
	C79.089432,427.867584 78.349419,426.933807 77.609406,426.000000
	C52.385376,426.000000 27.161346,426.000000 1.468657,426.000000
	C1.000000,409.645782 1.000000,393.291534 1.000000,376.468658
z"/>
</svg>
