<svg version="1.1" id="Layer_1" xmlns="http://www.w3.org/2000/svg" xmlns:xlink="http://www.w3.org/1999/xlink" x="0px" y="0px"
	 width="100%" viewBox="0 0 800 800" enable-background="new 0 0 800 800" xml:space="preserve">
<path fill="#000000" opacity="0.000000" stroke="none"
	d="
M801.000000,426.000000
	C801.000000,550.930115 801.000000,675.860168 801.000000,801.000000
	C668.644104,801.000000 536.288086,801.000000 403.180664,800.721985
	C403.655701,799.095825 404.829498,797.695068 406.116455,796.407410
	C444.978180,757.524109 483.839264,718.640198 522.775635,679.831787
	C524.013916,678.597534 526.044556,678.158325 527.705872,677.348450
	C527.613586,676.265442 527.521301,675.182495 527.429016,674.099487
	C514.929810,663.003235 502.430634,651.906982 490.216003,641.063416
	C469.062714,661.101440 447.134125,681.873901 425.740570,702.139526
	C425.740570,644.447327 425.740570,585.253052 425.740570,526.361694
	C408.865662,526.361694 392.463074,526.361694 375.730408,526.361694
	C375.730408,585.089111 375.730408,643.455200 375.730408,703.586060
	C353.488495,681.656616 332.298248,660.764038 310.703918,639.473083
	C298.866211,651.725159 287.193390,663.806580 275.256104,676.161682
	C277.175232,677.911194 278.579773,679.092407 279.872925,680.385010
	C318.518555,719.013428 357.160553,757.645447 395.757843,796.322021
	C397.076721,797.643677 397.929810,799.430176 399.000000,801.000000
	C266.407532,801.000000 133.815048,801.000000 1.000000,801.000000
	C1.000000,676.310791 1.000000,551.621399 1.468657,426.466034
	C60.493843,426.000000 119.050369,426.000000 177.606888,426.000000
	C178.346558,426.932587 179.086227,427.865173 179.825882,428.797760
	C157.879303,449.263000 135.932724,469.728271 113.647720,490.509094
	C126.742310,503.154419 138.754089,514.754028 150.243652,525.849365
	C192.296570,483.793488 233.954605,442.132507 275.051636,401.032593
	C233.739532,359.722900 192.078781,318.064575 150.162720,276.150970
	C138.552094,287.405762 126.563431,299.027039 115.397018,309.851257
	C136.706589,332.482544 157.573486,354.643677 177.682556,376.000000
	C119.944122,376.000000 60.472061,376.000000 1.000000,376.000000
	C1.000000,251.069901 1.000000,126.139801 1.000000,1.000000
	C133.355896,1.000000 265.711914,1.000000 398.819336,1.278028
	C398.344086,2.904313 397.170258,4.305348 395.883179,5.593161
	C357.016022,44.482063 318.149811,83.371964 279.205750,122.183754
	C277.971771,123.413521 275.918915,123.821648 274.247833,124.612823
	C274.331482,125.744431 274.415161,126.876038 274.498810,128.007645
	C287.019745,139.081207 299.540680,150.154785 312.362732,161.494644
	C312.226990,161.688721 312.613983,160.907242 313.201080,160.328873
	C332.500458,141.316666 351.807892,122.312599 371.162567,103.356743
	C372.316437,102.226639 373.871246,101.505905 376.166748,99.977150
	C376.166748,159.453232 376.166748,217.657150 376.166748,275.675812
	C393.055481,275.675812 409.458496,275.675812 426.188782,275.675812
	C426.188782,216.629852 426.188782,157.907532 426.188782,99.185219
	C426.640747,98.838646 427.092743,98.492073 427.544708,98.145500
	C437.906769,108.807312 448.210785,119.526360 458.647125,130.114944
	C469.264282,140.887009 480.011841,151.530533 491.142059,162.670456
	C503.107910,150.312958 514.802856,138.235199 526.668884,125.980797
	C524.813477,124.203720 523.468811,122.963020 522.175903,121.670555
	C483.291534,82.799011 444.406067,43.928574 405.563965,5.014796
	C404.468292,3.917109 403.844086,2.348837 403.000000,0.999998
	C535.592468,1.000000 668.184937,1.000000 801.000000,1.000000
	C801.000000,125.689224 801.000000,250.378571 800.531372,375.533966
	C740.839417,376.000000 681.616211,376.000000 624.559998,376.000000
	C644.636902,354.562683 665.482849,332.304138 684.779175,311.700256
	C674.249451,299.774719 663.177551,287.235168 652.711304,275.381531
	C609.751770,318.341370 568.092346,360.001129 527.126465,400.967346
	C568.391663,442.232330 610.051331,483.891815 651.929688,525.769958
	C663.493408,514.553040 675.478333,502.927551 687.475342,491.290314
	C665.981323,469.436615 644.988464,448.092499 623.259521,426.000000
	C683.389282,426.000000 742.194641,426.000000 801.000000,426.000000
z"/>
<path fill="#000000" opacity="1.000000" stroke="none"
	d="
M402.600006,0.999998
	C403.844086,2.348837 404.468292,3.917109 405.563965,5.014796
	C444.406067,43.928574 483.291534,82.799011 522.175903,121.670555
	C523.468811,122.963020 524.813477,124.203720 526.668884,125.980797
	C514.802856,138.235199 503.107910,150.312958 491.142059,162.670456
	C480.011841,151.530533 469.264282,140.887009 458.647125,130.114944
	C448.210785,119.526360 437.906769,108.807312 427.544708,98.145500
	C427.092743,98.492073 426.640747,98.838646 426.188782,99.185219
	C426.188782,157.907532 426.188782,216.629852 426.188782,275.675812
	C409.458496,275.675812 393.055481,275.675812 376.166748,275.675812
	C376.166748,217.657150 376.166748,159.453232 376.166748,99.977150
	C373.871246,101.505905 372.316437,102.226639 371.162567,103.356743
	C351.807892,122.312599 332.500458,141.316666 313.201080,160.328873
	C312.613983,160.907242 312.226990,161.688721 312.362732,161.494644
	C299.540680,150.154785 287.019745,139.081207 274.498810,128.007645
	C274.415161,126.876038 274.331482,125.744431 274.247833,124.612823
	C275.918915,123.821648 277.971771,123.413521 279.205750,122.183754
	C318.149811,83.371964 357.016022,44.482063 395.883179,5.593161
	C397.170258,4.305348 398.344086,2.904313 399.285339,1.278028
	C400.066681,1.000000 401.133331,1.000000 402.600006,0.999998
z"/>
<path fill="#000000" opacity="1.000000" stroke="none"
	d="
M399.399994,801.000000
	C397.929810,799.430176 397.076721,797.643677 395.757843,796.322021
	C357.160553,757.645447 318.518555,719.013428 279.872925,680.385010
	C278.579773,679.092407 277.175232,677.911194 275.256104,676.161682
	C287.193390,663.806580 298.866211,651.725159 310.703918,639.473083
	C332.298248,660.764038 353.488495,681.656616 375.730408,703.586060
	C375.730408,643.455200 375.730408,585.089111 375.730408,526.361694
	C392.463074,526.361694 408.865662,526.361694 425.740570,526.361694
	C425.740570,585.253052 425.740570,644.447327 425.740570,702.139526
	C447.134125,681.873901 469.062714,661.101440 490.216003,641.063416
	C502.430634,651.906982 514.929810,663.003235 527.429016,674.099487
	C527.521301,675.182495 527.613586,676.265442 527.705872,677.348450
	C526.044556,678.158325 524.013916,678.597534 522.775635,679.831787
	C483.839264,718.640198 444.978180,757.524109 406.116455,796.407410
	C404.829498,797.695068 403.655701,799.095825 402.714600,800.721985
	C401.933319,801.000000 400.866669,801.000000 399.399994,801.000000
z"/>
<path fill="#000000" opacity="1.000000" stroke="none"
	d="
M801.000000,425.531342
	C742.194641,426.000000 683.389282,426.000000 623.259521,426.000000
	C644.988464,448.092499 665.981323,469.436615 687.475342,491.290314
	C675.478333,502.927551 663.493408,514.553040 651.929688,525.769958
	C610.051331,483.891815 568.391663,442.232330 527.126465,400.967346
	C568.092346,360.001129 609.751770,318.341370 652.711304,275.381531
	C663.177551,287.235168 674.249451,299.774719 684.779175,311.700256
	C665.482849,332.304138 644.636902,354.562683 624.559998,376.000000
	C681.616211,376.000000 740.839417,376.000000 800.531372,376.000000
	C801.000000,392.354218 801.000000,408.708466 801.000000,425.531342
z"/>
<path fill="#000000" opacity="1.000000" stroke="none"
	d="
M1.000000,376.468658
	C60.472061,376.000000 119.944122,376.000000 177.682556,376.000000
	C157.573486,354.643677 136.706589,332.482544 115.397018,309.851257
	C126.563431,299.027039 138.552094,287.405762 150.162720,276.150970
	C192.078781,318.064575 233.739532,359.722900 275.051636,401.032593
	C233.954605,442.132507 192.296570,483.793488 150.243652,525.849365
	C138.754089,514.754028 126.742310,503.154419 113.647720,490.509094
	C135.932724,469.728271 157.879303,449.263000 179.825882,428.797760
	C179.086227,427.865173 178.346558,426.932587 177.606888,426.000000
	C119.050369,426.000000 60.493843,426.000000 1.468657,426.000000
	C1.000000,409.645782 1.000000,393.291534 1.000000,376.468658
z"/>
</svg>
