<svg version="1.1" id="Layer_1" xmlns="http://www.w3.org/2000/svg" xmlns:xlink="http://www.w3.org/1999/xlink" x="0px" y="0px" width="100%" viewBox="0 0 800 800" enable-background="new 0 0 800 800" xml:space="preserve">
  <path fill="#000000" opacity="0.000000" stroke="none" d="
M399.000000,801.000000
	C266.368683,801.000000 133.737381,801.000000 1.053032,801.000000
	C1.053032,534.439758 1.053032,267.879517 1.053032,1.000000
	C133.358063,1.000000 265.716400,1.000000 398.822693,1.278029
	C398.344147,2.904253 397.170410,4.305242 395.883362,5.592978
	C357.019196,44.478779 318.155762,83.365364 279.215820,122.175186
	C277.979492,123.407356 275.938782,123.832413 274.273041,124.633736
	C274.348877,125.751495 274.424683,126.869263 274.500519,127.987030
	C287.015381,139.067062 299.530243,150.147095 312.143280,161.314056
	C311.982941,161.467224 312.586487,160.905106 313.174347,160.327042
	C332.489258,141.333603 351.791626,122.327400 371.143677,103.371887
	C372.299683,102.239571 373.851288,101.511116 376.155762,99.966888
	C376.155762,126.115372 376.155762,150.991531 376.155762,175.676422
	C393.056061,175.676422 409.458191,175.676422 426.200073,175.676422
	C426.200073,149.961044 426.200073,124.567955 426.200073,99.174858
	C426.576752,98.904228 426.953461,98.633606 427.330139,98.362976
	C448.434662,119.678459 469.539154,140.993942 491.073090,162.743164
	C503.115356,150.305664 514.808350,138.228943 526.660095,125.988190
	C524.799744,124.199806 523.459229,122.954346 522.166016,121.661537
	C483.285065,82.792633 444.402649,43.925266 405.563690,5.014507
	C404.468109,3.916911 403.843964,2.348750 403.000000,1.000004
	C535.631348,1.000000 668.262634,1.000000 800.947021,1.000000
	C800.947021,267.560303 800.947021,534.120667 800.947021,801.000000
	C668.641907,801.000000 536.283630,801.000000 403.177277,800.721985
	C403.655579,799.096069 404.829041,797.695374 406.115784,796.407898
	C444.973267,757.529053 483.830414,718.649841 522.760925,679.844299
	C524.002625,678.606506 526.015198,678.142151 527.668396,677.317200
	C527.633972,676.208374 527.599487,675.099487 527.565063,673.990601
	C515.018616,662.941223 502.472137,651.891785 490.256866,641.133972
	C469.123016,661.138489 447.185120,681.903992 425.755829,702.188110
	C425.755829,677.789612 425.755829,651.920959 425.755829,626.360596
	C408.865051,626.360596 392.463898,626.360596 375.715363,626.360596
	C375.715363,651.760132 375.715363,676.799805 375.715363,703.572388
	C353.477448,681.646423 332.286285,660.752563 310.707947,639.476929
	C298.932373,651.658875 287.332367,663.659180 274.700958,676.726501
	C276.533478,677.983032 278.239655,678.807312 279.506470,680.071716
	C318.294159,718.784851 357.046082,757.533936 395.758270,796.322571
	C397.077087,797.643921 397.929962,799.430359 399.000000,801.000000
M657.624084,426.000000
	C680.375977,426.000000 703.127869,426.000000 725.663086,426.000000
	C725.663086,408.925262 725.663086,392.518707 725.663086,375.681122
	C699.318604,375.681122 673.309753,375.681122 649.856689,375.681122
	C669.632141,354.594482 690.427551,332.420288 711.610657,309.832611
	C700.293396,298.870544 688.221924,287.177948 677.106934,276.411865
	C634.869385,318.645660 593.222961,360.288422 552.002991,401.504730
	C593.080688,442.581360 634.650574,484.150269 676.574829,526.073486
	C688.397522,514.619568 700.471741,502.921967 712.491943,491.276672
	C690.911072,469.368408 669.924988,448.063965 648.190735,426.000000
	C652.006775,426.000000 654.339722,426.000000 657.624084,426.000000
M221.500000,371.000000
	C189.731552,339.227783 157.963104,307.455536 125.927261,275.415863
	C113.583817,287.376129 101.595627,298.992157 90.234169,310.000916
	C111.594231,332.529694 132.538788,354.620239 152.912033,376.108215
	C128.410049,376.108215 102.357010,376.108215 76.240753,376.108215
	C76.240753,392.887207 76.240753,409.288452 76.240753,426.089172
	C101.842201,426.089172 127.206116,426.089172 152.570023,426.089172
	C153.254211,426.908630 153.938385,427.728088 154.622574,428.547577
	C132.690994,449.001038 110.759422,469.454498 88.427620,490.281250
	C101.677849,503.086853 113.681480,514.687744 125.424179,526.036438
	C167.399445,484.060638 209.048370,442.411194 250.993835,400.465240
	C241.506927,390.987671 231.753479,381.243805 221.500000,371.000000
z"/>
  <path fill="#000000" opacity="1.000000" stroke="none" d="
M402.600006,1.000004
	C403.843964,2.348750 404.468109,3.916911 405.563690,5.014507
	C444.402649,43.925266 483.285065,82.792633 522.166016,121.661537
	C523.459229,122.954346 524.799744,124.199806 526.660095,125.988190
	C514.808350,138.228943 503.115356,150.305664 491.073090,162.743164
	C469.539154,140.993942 448.434662,119.678459 427.330139,98.362976
	C426.953461,98.633606 426.576752,98.904228 426.200073,99.174858
	C426.200073,124.567955 426.200073,149.961044 426.200073,175.676422
	C409.458191,175.676422 393.056061,175.676422 376.155762,175.676422
	C376.155762,150.991531 376.155762,126.115372 376.155762,99.966888
	C373.851288,101.511116 372.299683,102.239571 371.143677,103.371887
	C351.791626,122.327400 332.489258,141.333603 313.174347,160.327042
	C312.586487,160.905106 311.982941,161.467224 312.143280,161.314056
	C299.530243,150.147095 287.015381,139.067062 274.500519,127.987030
	C274.424683,126.869263 274.348877,125.751495 274.273041,124.633736
	C275.938782,123.832413 277.979492,123.407356 279.215820,122.175186
	C318.155762,83.365364 357.019196,44.478779 395.883362,5.592978
	C397.170410,4.305242 398.344147,2.904253 399.285339,1.278029
	C400.066681,1.000000 401.133331,1.000000 402.600006,1.000004
z"/>
  <path fill="#000000" opacity="1.000000" stroke="none" d="
M399.399994,801.000000
	C397.929962,799.430359 397.077087,797.643921 395.758270,796.322571
	C357.046082,757.533936 318.294159,718.784851 279.506470,680.071716
	C278.239655,678.807312 276.533478,677.983032 274.700958,676.726501
	C287.332367,663.659180 298.932373,651.658875 310.707947,639.476929
	C332.286285,660.752563 353.477448,681.646423 375.715363,703.572388
	C375.715363,676.799805 375.715363,651.760132 375.715363,626.360596
	C392.463898,626.360596 408.865051,626.360596 425.755829,626.360596
	C425.755829,651.920959 425.755829,677.789612 425.755829,702.188110
	C447.185120,681.903992 469.123016,661.138489 490.256866,641.133972
	C502.472137,651.891785 515.018616,662.941223 527.565063,673.990601
	C527.599487,675.099487 527.633972,676.208374 527.668396,677.317200
	C526.015198,678.142151 524.002625,678.606506 522.760925,679.844299
	C483.830414,718.649841 444.973267,757.529053 406.115784,796.407898
	C404.829041,797.695374 403.655579,799.096069 402.714630,800.721985
	C401.933319,801.000000 400.866669,801.000000 399.399994,801.000000
z"/>
  <path fill="#000000" opacity="1.000000" stroke="none" d="
M657.148315,426.000000
	C654.339722,426.000000 652.006775,426.000000 648.190735,426.000000
	C669.924988,448.063965 690.911072,469.368408 712.491943,491.276672
	C700.471741,502.921967 688.397522,514.619568 676.574829,526.073486
	C634.650574,484.150269 593.080688,442.581360 552.002991,401.504730
	C593.222961,360.288422 634.869385,318.645660 677.106934,276.411865
	C688.221924,287.177948 700.293396,298.870544 711.610657,309.832611
	C690.427551,332.420288 669.632141,354.594482 649.856689,375.681122
	C673.309753,375.681122 699.318604,375.681122 725.663086,375.681122
	C725.663086,392.518707 725.663086,408.925262 725.663086,426.000000
	C703.127869,426.000000 680.375977,426.000000 657.148315,426.000000
z"/>
  <path fill="#000000" opacity="1.000000" stroke="none" d="
M221.750031,371.250000
	C231.753479,381.243805 241.506927,390.987671 250.993835,400.465240
	C209.048370,442.411194 167.399445,484.060638 125.424179,526.036438
	C113.681480,514.687744 101.677849,503.086853 88.427620,490.281250
	C110.759422,469.454498 132.690994,449.001038 154.622574,428.547577
	C153.938385,427.728088 153.254211,426.908630 152.570023,426.089172
	C127.206116,426.089172 101.842201,426.089172 76.240753,426.089172
	C76.240753,409.288452 76.240753,392.887207 76.240753,376.108215
	C102.357010,376.108215 128.410049,376.108215 152.912033,376.108215
	C132.538788,354.620239 111.594231,332.529694 90.234169,310.000916
	C101.595627,298.992157 113.583817,287.376129 125.927261,275.415863
	C157.963104,307.455536 189.731552,339.227783 221.750031,371.250000
z"/>
</svg>
