<svg version="1.1" id="Layer_1" xmlns="http://www.w3.org/2000/svg" xmlns:xlink="http://www.w3.org/1999/xlink" x="0px" y="0px" width="100%" viewBox="0 0 800 800" enable-background="new 0 0 800 800" xml:space="preserve">
  <path fill="#000000" opacity="0.000000" stroke="none" d="
M801.000000,478.000000
	C801.000000,585.630920 801.000000,693.261841 801.000000,800.936523
	C534.333313,800.936523 267.666656,800.936523 1.000000,800.936523
	C1.000000,743.558716 1.000000,686.244385 1.355445,628.466309
	C3.095164,629.122559 4.594224,630.127686 5.847044,631.379272
	C44.624020,670.116943 83.375870,708.879700 122.138039,747.632141
	C123.389801,748.883606 124.708488,750.068176 125.801796,751.100586
	C137.971375,738.938904 149.826141,727.091797 162.465729,714.460388
	C141.341782,693.376099 120.090462,672.164673 98.772385,650.886597
	C149.259796,650.886597 199.972198,650.886597 250.764740,650.886597
	C250.764740,634.122620 250.764740,617.722046 250.764740,601.000000
	C225.243942,601.000000 199.957031,601.000000 174.670135,601.000000
	C149.264740,601.000000 123.859337,601.000000 98.215286,601.000000
	C119.818741,579.410767 141.080399,558.163147 161.402390,537.854553
	C149.007370,525.445862 137.061523,513.486877 125.000648,501.412750
	C124.182785,502.252319 122.921288,503.577209 121.628128,504.870453
	C82.990585,543.511963 44.357288,582.157715 5.678217,620.757568
	C4.356489,622.076599 2.569925,622.929749 1.000005,624.000000
	C1.000000,525.643311 1.000000,427.286682 1.355453,328.466309
	C3.095264,329.122650 4.594354,330.127899 5.847305,331.379547
	C44.624245,370.117157 83.376144,408.879852 122.138245,447.632324
	C123.390038,448.883789 124.708687,450.068390 125.801575,451.100403
	C137.971222,438.938568 149.825928,427.091492 162.468369,414.457153
	C141.341476,393.376160 120.087067,372.167938 98.759209,350.886414
	C149.259933,350.886414 199.972351,350.886414 250.764679,350.886414
	C250.764679,334.122498 250.764679,317.721924 250.764679,300.939026
	C199.838730,300.939026 149.146484,300.939026 98.275787,300.939026
	C119.818474,279.410461 141.080093,258.162781 161.401901,237.854309
	C149.007217,225.445938 137.061401,213.486923 124.883392,201.295471
	C124.093384,202.164154 122.915108,203.571671 121.622498,204.864883
	C82.991867,243.513260 44.357304,282.157715 5.678224,320.757568
	C4.356517,322.076569 2.569910,322.929718 0.999998,324.000000
	C1.000000,216.369110 1.000000,108.738205 1.000000,1.063366
	C267.666656,1.063366 534.333313,1.063366 801.000000,1.063366
	C801.000000,58.441147 801.000000,115.755562 800.721985,173.820374
	C799.094971,173.343430 797.693115,172.168961 796.404541,170.881134
	C757.624939,132.121582 718.850525,93.356865 680.113098,54.555145
	C678.844055,53.283993 677.969910,51.618622 677.173645,50.503750
	C664.420898,63.253525 652.514465,75.157227 639.517517,88.151222
	C660.442139,109.070190 681.644897,130.267227 702.700378,151.317047
	C652.601196,151.317047 601.857056,151.317047 551.341675,151.317047
	C551.341675,168.085068 551.341675,184.491348 551.341675,201.325317
	C602.354004,201.325317 653.025330,201.325317 704.244080,201.325317
	C682.532166,223.015747 661.314087,244.212769 640.842224,264.664307
	C652.829773,276.648468 664.783997,288.599274 676.937317,300.749115
	C677.786682,299.852325 679.011658,298.496735 680.301697,297.206177
	C719.181458,258.311249 758.061279,219.416428 796.984314,180.564880
	C798.082336,179.468933 799.650879,178.844391 801.000000,178.000000
	C801.000000,276.356659 801.000000,374.713318 800.721985,473.820374
	C799.094849,473.343323 797.692932,472.168732 796.404297,470.880768
	C757.622742,432.119324 718.846313,393.352722 680.107483,354.548553
	C678.838989,353.277863 677.972046,351.606262 677.123901,350.411713
	C664.385254,363.159210 652.515991,375.036652 639.622375,387.939178
	C660.427490,408.716400 681.730408,429.990753 703.094116,451.325806
	C652.584900,451.325806 601.840454,451.325806 551.350830,451.325806
	C551.350830,468.102509 551.350830,484.509644 551.350830,501.347168
	C602.361633,501.347168 653.022095,501.347168 704.221741,501.347168
	C682.510315,523.038269 661.290405,544.238342 640.894653,564.614990
	C652.879089,576.615051 664.830383,588.581909 677.061035,600.828491
	C677.886963,599.903625 679.042969,598.474487 680.335205,597.181458
	C718.978149,558.516907 757.627075,519.858276 796.320251,481.244019
	C797.642456,479.924500 799.429565,479.070801 801.000000,478.000000
z"/>
  <path fill="#000000" opacity="1.000000" stroke="none" d="
M801.000000,177.600006
	C799.650879,178.844391 798.082336,179.468933 796.984314,180.564880
	C758.061279,219.416428 719.181458,258.311249 680.301697,297.206177
	C679.011658,298.496735 677.786682,299.852325 676.937317,300.749115
	C664.783997,288.599274 652.829773,276.648468 640.842224,264.664307
	C661.314087,244.212769 682.532166,223.015747 704.244080,201.325317
	C653.025330,201.325317 602.354004,201.325317 551.341675,201.325317
	C551.341675,184.491348 551.341675,168.085068 551.341675,151.317047
	C601.857056,151.317047 652.601196,151.317047 702.700378,151.317047
	C681.644897,130.267227 660.442139,109.070190 639.517517,88.151222
	C652.514465,75.157227 664.420898,63.253525 677.173645,50.503750
	C677.969910,51.618622 678.844055,53.283993 680.113098,54.555145
	C718.850525,93.356865 757.624939,132.121582 796.404541,170.881134
	C797.693115,172.168961 799.094971,173.343430 800.721985,174.285370
	C801.000000,175.066666 801.000000,176.133347 801.000000,177.600006
z"/>
  <path fill="#000000" opacity="1.000000" stroke="none" d="
M0.999998,324.399994
	C2.569910,322.929718 4.356517,322.076569 5.678224,320.757568
	C44.357304,282.157715 82.991867,243.513260 121.622498,204.864883
	C122.915108,203.571671 124.093384,202.164154 124.883392,201.295471
	C137.061401,213.486923 149.007217,225.445938 161.401901,237.854309
	C141.080093,258.162781 119.818474,279.410461 98.275787,300.939026
	C149.146484,300.939026 199.838730,300.939026 250.764679,300.939026
	C250.764679,317.721924 250.764679,334.122498 250.764679,350.886414
	C199.972351,350.886414 149.259933,350.886414 98.759209,350.886414
	C120.087067,372.167938 141.341476,393.376160 162.468369,414.457153
	C149.825928,427.091492 137.971222,438.938568 125.801575,451.100403
	C124.708687,450.068390 123.390038,448.883789 122.138245,447.632324
	C83.376144,408.879852 44.624245,370.117157 5.847305,331.379547
	C4.594354,330.127899 3.095264,329.122650 1.355453,328.001282
	C1.000000,326.933319 1.000000,325.866669 0.999998,324.399994
z"/>
  <path fill="#000000" opacity="1.000000" stroke="none" d="
M801.000000,477.600006
	C799.429565,479.070801 797.642456,479.924500 796.320251,481.244019
	C757.627075,519.858276 718.978149,558.516907 680.335205,597.181458
	C679.042969,598.474487 677.886963,599.903625 677.061035,600.828491
	C664.830383,588.581909 652.879089,576.615051 640.894653,564.614990
	C661.290405,544.238342 682.510315,523.038269 704.221741,501.347168
	C653.022095,501.347168 602.361633,501.347168 551.350830,501.347168
	C551.350830,484.509644 551.350830,468.102509 551.350830,451.325806
	C601.840454,451.325806 652.584900,451.325806 703.094116,451.325806
	C681.730408,429.990753 660.427490,408.716400 639.622375,387.939178
	C652.515991,375.036652 664.385254,363.159210 677.123901,350.411713
	C677.972046,351.606262 678.838989,353.277863 680.107483,354.548553
	C718.846313,393.352722 757.622742,432.119324 796.404297,470.880768
	C797.692932,472.168732 799.094849,473.343323 800.721985,474.285370
	C801.000000,475.066681 801.000000,476.133331 801.000000,477.600006
z"/>
  <path fill="#000000" opacity="1.000000" stroke="none" d="
M1.000005,624.399963
	C2.569925,622.929749 4.356489,622.076599 5.678217,620.757568
	C44.357288,582.157715 82.990585,543.511963 121.628128,504.870453
	C122.921288,503.577209 124.182785,502.252319 125.000648,501.412750
	C137.061523,513.486877 149.007370,525.445862 161.402390,537.854553
	C141.080399,558.163147 119.818741,579.410767 98.215286,601.000000
	C123.859337,601.000000 149.264740,601.000000 174.670135,601.000000
	C199.957031,601.000000 225.243942,601.000000 250.764740,601.000000
	C250.764740,617.722046 250.764740,634.122620 250.764740,650.886597
	C199.972198,650.886597 149.259796,650.886597 98.772385,650.886597
	C120.090462,672.164673 141.341782,693.376099 162.465729,714.460388
	C149.826141,727.091797 137.971375,738.938904 125.801796,751.100586
	C124.708488,750.068176 123.389801,748.883606 122.138039,747.632141
	C83.375870,708.879700 44.624020,670.116943 5.847044,631.379272
	C4.594224,630.127686 3.095164,629.122559 1.355445,628.001282
	C1.000000,626.933289 1.000000,625.866638 1.000005,624.399963
z"/>
</svg>
