<svg version="1.1" id="Layer_1" xmlns="http://www.w3.org/2000/svg" xmlns:xlink="http://www.w3.org/1999/xlink" x="0px" y="0px" width="100%" viewBox="0 0 750 750" enable-background="new 0 0 750 750" xml:space="preserve">
  <path fill="#000000" opacity="0.000000" stroke="none" d="
M374.000000,751.000000
	C249.738708,751.000000 125.477432,751.000000 1.000000,751.000000
	C1.000000,626.977417 1.000000,502.954742 1.355449,378.467316
	C3.094643,379.122040 4.592832,380.126923 5.845339,381.377808
	C36.258160,411.750153 66.643456,442.149994 97.040627,472.537994
	C98.300949,473.797943 99.627602,474.991547 100.728638,476.032013
	C112.852142,463.915039 124.727211,452.046326 137.679031,439.101440
	C125.019844,426.455383 112.063507,413.512451 99.233444,400.695679
	C132.720749,400.695679 166.791946,400.695679 200.676956,400.695679
	C200.676956,383.944489 200.676956,367.542664 200.676956,350.730957
	C166.349274,350.730957 132.343445,350.730957 97.354980,350.730957
	C110.994072,337.162720 123.929420,324.294556 136.307861,311.980408
	C124.388756,300.048981 112.529518,288.177460 99.879974,275.514801
	C99.150177,276.550385 98.369514,278.077972 97.216202,279.233673
	C66.737488,309.775604 36.229588,340.288483 5.677922,370.757446
	C4.355733,372.076050 2.569877,372.929749 0.999997,374.000000
	C1.000000,249.738708 1.000000,125.477432 1.000000,1.000000
	C125.022560,1.000000 249.045242,1.000000 373.819305,1.278025
	C373.344360,2.904003 372.170715,4.304590 370.884033,5.592197
	C340.385162,36.112633 309.872833,66.619637 279.369904,97.135986
	C278.118347,98.388069 276.933777,99.707047 275.910095,100.791367
	C288.054596,112.975578 299.886627,124.846313 312.924164,137.926498
	C325.482513,125.185768 338.133118,112.351418 350.984924,99.312950
	C350.984924,133.044876 350.984924,166.881363 350.984924,200.750305
	C367.907654,200.750305 384.307831,200.750305 401.257935,200.750305
	C401.257935,166.696579 401.257935,132.889343 401.257935,98.749474
	C414.447571,111.958183 427.196045,124.725075 439.441101,136.987808
	C451.970947,124.467300 463.843597,112.603523 476.584747,99.871880
	C475.512390,99.141243 473.953979,98.397606 472.801086,97.247467
	C442.019165,66.539185 411.271149,35.796875 380.563721,5.014150
	C379.468445,3.916216 378.843933,2.348675 378.000000,0.999993
	C502.261292,1.000000 626.522583,1.000000 751.000000,1.000000
	C751.000000,125.022560 751.000000,249.045242 750.721985,373.819336
	C749.096252,373.344604 747.695801,372.171173 746.408386,370.884674
	C715.892944,340.390625 685.390991,309.883087 654.879395,279.385132
	C653.626099,278.132355 652.303406,276.948944 651.145630,275.858185
	C638.994629,288.008698 627.139648,299.863220 614.736694,312.265656
	C627.529297,325.023438 640.439148,337.898102 653.723938,351.146729
	C619.381836,351.146729 585.232300,351.146729 551.345337,351.146729
	C551.345337,368.104767 551.345337,384.505219 551.345337,401.311584
	C585.687134,401.311584 619.684448,401.311584 654.833984,401.311584
	C641.112549,414.959473 628.179199,427.823395 615.829895,440.106476
	C627.658508,451.944946 639.515137,463.811493 651.815613,476.122253
	C652.619263,475.199738 653.628540,473.892792 654.786255,472.734100
	C685.278564,442.216766 715.776794,411.705292 746.322815,381.241699
	C747.644714,379.923401 749.430359,379.069977 751.000000,378.000000
	C751.000000,502.261292 751.000000,626.522583 751.000000,751.000000
	C626.977417,751.000000 502.954742,751.000000 378.180664,750.721985
	C378.655548,749.096008 379.829224,747.695435 381.115967,746.407898
	C411.614838,715.887451 442.127045,685.380371 472.630035,654.864075
	C473.881592,653.612000 475.066162,652.292969 476.089905,651.208496
	C463.945557,639.024353 452.113525,627.153503 439.074799,614.072021
	C426.518555,626.815125 413.870239,639.651794 401.015137,652.698181
	C401.015137,618.955139 401.015137,585.118652 401.015137,551.249695
	C384.092346,551.249695 367.692169,551.249695 350.742035,551.249695
	C350.742035,585.303406 350.742035,619.110657 350.742035,653.250488
	C337.552368,640.041809 324.803894,627.274963 312.558777,615.012207
	C300.028961,627.532654 288.156311,639.396423 275.415161,652.128052
	C276.487610,652.858765 278.046021,653.602478 279.198914,654.752563
	C309.980865,685.460815 340.728851,716.203125 371.436310,746.985901
	C372.531586,748.083801 373.156097,749.651306 374.000000,751.000000
M526.000000,93.501244
	C526.000000,104.266571 526.000000,115.031898 526.000000,126.213326
	C547.266418,126.213326 567.955139,126.213326 590.227112,126.213326
	C564.527039,151.901093 539.835571,176.580688 514.474060,201.930038
	C515.674744,202.833221 517.136597,203.691818 518.303040,204.848343
	C527.678101,214.143845 537.054810,223.439224 546.309631,232.853912
	C550.932129,237.556259 550.818604,237.670273 555.536316,232.953598
	C577.458008,211.036819 599.377686,189.117996 621.303772,167.205627
	C622.506409,166.003723 623.760193,164.853027 626.016724,162.698242
	C626.016724,184.731277 626.016724,205.249374 626.016724,225.720337
	C642.958496,225.720337 659.363953,225.720337 675.717468,225.720337
	C675.717468,175.702499 675.717468,125.964859 675.717468,76.285370
	C625.696777,76.285370 575.959106,76.285370 526.000000,76.285370
	C526.000000,81.879951 526.000000,87.190887 526.000000,93.501244
M163.500000,76.000000
	C134.411743,76.000000 105.323486,76.000000 76.260880,76.000000
	C76.260880,126.279884 76.260880,176.004562 76.260880,225.741623
	C92.924004,225.741623 109.324905,225.741623 126.050186,225.741623
	C126.050186,205.400269 126.050186,185.314377 126.050186,165.228485
	C126.541946,164.831253 127.033699,164.434021 127.525459,164.036789
	C151.951447,188.435974 176.350983,212.862701 200.008316,236.503952
	C212.352234,224.161026 224.394165,212.120056 237.327484,199.187759
	C213.184860,175.049744 188.556335,150.425949 163.897537,125.771858
	C184.335373,125.771858 205.069977,125.771858 225.706909,125.771858
	C225.706909,109.005783 225.706909,92.604263 225.706909,76.000000
	C205.109680,76.000000 184.804840,76.000000 163.500000,76.000000
M76.000000,605.500000
	C76.000000,628.921509 76.000000,652.343018 76.000000,675.746338
	C126.274330,675.746338 175.994507,675.746338 225.751083,675.746338
	C225.751083,659.092163 225.751083,642.692871 225.751083,625.894897
	C204.811005,625.894897 184.116180,625.894897 163.421341,625.894897
	C163.144547,625.483704 162.867737,625.072510 162.590942,624.661316
	C187.349335,599.942688 212.107727,575.224060 236.080750,551.289551
	C224.180984,539.371948 212.228287,527.401306 199.029984,514.183228
	C174.941391,538.291748 150.456787,562.796570 125.905273,587.368347
	C125.905273,567.218628 125.905273,546.697449 125.905273,526.298950
	C108.990875,526.298950 92.590706,526.298950 76.000000,526.298950
	C76.000000,552.565002 76.000000,578.532471 76.000000,605.500000
M657.499390,526.000000
	C647.070923,526.000000 636.642517,526.000000 625.656006,526.000000
	C625.656006,547.034058 625.656006,567.502991 625.656006,589.431580
	C600.105957,563.864624 575.575012,539.317444 551.498718,515.225220
	C539.266968,527.457031 527.300903,539.423218 514.424866,552.299255
	C538.821228,576.693237 563.517212,601.386780 588.451050,626.318237
	C567.585083,626.318237 546.846008,626.318237 526.334595,626.318237
	C526.334595,643.081116 526.334595,659.482178 526.334595,675.688599
	C576.390198,675.688599 626.110779,675.688599 675.711853,675.688599
	C675.711853,625.656433 675.711853,575.936035 675.711853,526.000000
	C669.783142,526.000000 664.140930,526.000000 657.499390,526.000000
z"/>
  <path fill="#000000" opacity="1.000000" stroke="none" d="
M377.600037,0.999993
	C378.843933,2.348675 379.468445,3.916216 380.563721,5.014150
	C411.271149,35.796875 442.019165,66.539185 472.801086,97.247467
	C473.953979,98.397606 475.512390,99.141243 476.584747,99.871880
	C463.843597,112.603523 451.970947,124.467300 439.441101,136.987808
	C427.196045,124.725075 414.447571,111.958183 401.257935,98.749474
	C401.257935,132.889343 401.257935,166.696579 401.257935,200.750305
	C384.307831,200.750305 367.907654,200.750305 350.984924,200.750305
	C350.984924,166.881363 350.984924,133.044876 350.984924,99.312950
	C338.133118,112.351418 325.482513,125.185768 312.924164,137.926498
	C299.886627,124.846313 288.054596,112.975578 275.910095,100.791367
	C276.933777,99.707047 278.118347,98.388069 279.369904,97.135986
	C309.872833,66.619637 340.385162,36.112633 370.884033,5.592197
	C372.170715,4.304590 373.344360,2.904003 374.285339,1.278025
	C375.066681,1.000000 376.133331,1.000000 377.600037,0.999993
z"/>
  <path fill="#000000" opacity="1.000000" stroke="none" d="
M374.399994,751.000000
	C373.156097,749.651306 372.531586,748.083801 371.436310,746.985901
	C340.728851,716.203125 309.980865,685.460815 279.198914,654.752563
	C278.046021,653.602478 276.487610,652.858765 275.415161,652.128052
	C288.156311,639.396423 300.028961,627.532654 312.558777,615.012207
	C324.803894,627.274963 337.552368,640.041809 350.742035,653.250488
	C350.742035,619.110657 350.742035,585.303406 350.742035,551.249695
	C367.692169,551.249695 384.092346,551.249695 401.015137,551.249695
	C401.015137,585.118652 401.015137,618.955139 401.015137,652.698181
	C413.870239,639.651794 426.518555,626.815125 439.074799,614.072021
	C452.113525,627.153503 463.945557,639.024353 476.089905,651.208496
	C475.066162,652.292969 473.881592,653.612000 472.630035,654.864075
	C442.127045,685.380371 411.614838,715.887451 381.115967,746.407898
	C379.829224,747.695435 378.655548,749.096008 377.714600,750.721985
	C376.933319,751.000000 375.866669,751.000000 374.399994,751.000000
z"/>
  <path fill="#000000" opacity="1.000000" stroke="none" d="
M0.999997,374.399994
	C2.569877,372.929749 4.355733,372.076050 5.677922,370.757446
	C36.229588,340.288483 66.737488,309.775604 97.216202,279.233673
	C98.369514,278.077972 99.150177,276.550385 99.879974,275.514801
	C112.529518,288.177460 124.388756,300.048981 136.307861,311.980408
	C123.929420,324.294556 110.994072,337.162720 97.354980,350.730957
	C132.343445,350.730957 166.349274,350.730957 200.676956,350.730957
	C200.676956,367.542664 200.676956,383.944489 200.676956,400.695679
	C166.791946,400.695679 132.720749,400.695679 99.233444,400.695679
	C112.063507,413.512451 125.019844,426.455383 137.679031,439.101440
	C124.727211,452.046326 112.852142,463.915039 100.728638,476.032013
	C99.627602,474.991547 98.300949,473.797943 97.040627,472.537994
	C66.643456,442.149994 36.258160,411.750153 5.845339,381.377808
	C4.592832,380.126923 3.094643,379.122040 1.355449,378.001282
	C1.000000,376.933319 1.000000,375.866669 0.999997,374.399994
z"/>
  <path fill="#000000" opacity="1.000000" stroke="none" d="
M751.000000,377.599976
	C749.430359,379.069977 747.644714,379.923401 746.322815,381.241699
	C715.776794,411.705292 685.278564,442.216766 654.786255,472.734100
	C653.628540,473.892792 652.619263,475.199738 651.815613,476.122253
	C639.515137,463.811493 627.658508,451.944946 615.829895,440.106476
	C628.179199,427.823395 641.112549,414.959473 654.833984,401.311584
	C619.684448,401.311584 585.687134,401.311584 551.345337,401.311584
	C551.345337,384.505219 551.345337,368.104767 551.345337,351.146729
	C585.232300,351.146729 619.381836,351.146729 653.723938,351.146729
	C640.439148,337.898102 627.529297,325.023438 614.736694,312.265656
	C627.139648,299.863220 638.994629,288.008698 651.145630,275.858185
	C652.303406,276.948944 653.626099,278.132355 654.879395,279.385132
	C685.390991,309.883087 715.892944,340.390625 746.408386,370.884674
	C747.695801,372.171173 749.096252,373.344604 750.721985,374.285370
	C751.000000,375.066681 751.000000,376.133331 751.000000,377.599976
z"/>
  <path fill="#000000" opacity="1.000000" stroke="none" d="
M526.000000,93.001541
	C526.000000,87.190887 526.000000,81.879951 526.000000,76.285370
	C575.959106,76.285370 625.696777,76.285370 675.717468,76.285370
	C675.717468,125.964859 675.717468,175.702499 675.717468,225.720337
	C659.363953,225.720337 642.958496,225.720337 626.016724,225.720337
	C626.016724,205.249374 626.016724,184.731277 626.016724,162.698242
	C623.760193,164.853027 622.506409,166.003723 621.303772,167.205627
	C599.377686,189.117996 577.458008,211.036819 555.536316,232.953598
	C550.818604,237.670273 550.932129,237.556259 546.309631,232.853912
	C537.054810,223.439224 527.678101,214.143845 518.303040,204.848343
	C517.136597,203.691818 515.674744,202.833221 514.474060,201.930038
	C539.835571,176.580688 564.527039,151.901093 590.227112,126.213326
	C567.955139,126.213326 547.266418,126.213326 526.000000,126.213326
	C526.000000,115.031898 526.000000,104.266571 526.000000,93.001541
z"/>
  <path fill="#000000" opacity="1.000000" stroke="none" d="
M164.000000,76.000000
	C184.804840,76.000000 205.109680,76.000000 225.706909,76.000000
	C225.706909,92.604263 225.706909,109.005783 225.706909,125.771858
	C205.069977,125.771858 184.335373,125.771858 163.897537,125.771858
	C188.556335,150.425949 213.184860,175.049744 237.327484,199.187759
	C224.394165,212.120056 212.352234,224.161026 200.008316,236.503952
	C176.350983,212.862701 151.951447,188.435974 127.525459,164.036789
	C127.033699,164.434021 126.541946,164.831253 126.050186,165.228485
	C126.050186,185.314377 126.050186,205.400269 126.050186,225.741623
	C109.324905,225.741623 92.924004,225.741623 76.260880,225.741623
	C76.260880,176.004562 76.260880,126.279884 76.260880,76.000000
	C105.323486,76.000000 134.411743,76.000000 164.000000,76.000000
z"/>
  <path fill="#000000" opacity="1.000000" stroke="none" d="
M76.000000,605.000000
	C76.000000,578.532471 76.000000,552.565002 76.000000,526.298950
	C92.590706,526.298950 108.990875,526.298950 125.905273,526.298950
	C125.905273,546.697449 125.905273,567.218628 125.905273,587.368347
	C150.456787,562.796570 174.941391,538.291748 199.029984,514.183228
	C212.228287,527.401306 224.180984,539.371948 236.080750,551.289551
	C212.107727,575.224060 187.349335,599.942688 162.590942,624.661316
	C162.867737,625.072510 163.144547,625.483704 163.421341,625.894897
	C184.116180,625.894897 204.811005,625.894897 225.751083,625.894897
	C225.751083,642.692871 225.751083,659.092163 225.751083,675.746338
	C175.994507,675.746338 126.274330,675.746338 76.000000,675.746338
	C76.000000,652.343018 76.000000,628.921509 76.000000,605.000000
z"/>
  <path fill="#000000" opacity="1.000000" stroke="none" d="
M657.999084,526.000000
	C664.140930,526.000000 669.783142,526.000000 675.711853,526.000000
	C675.711853,575.936035 675.711853,625.656433 675.711853,675.688599
	C626.110779,675.688599 576.390198,675.688599 526.334595,675.688599
	C526.334595,659.482178 526.334595,643.081116 526.334595,626.318237
	C546.846008,626.318237 567.585083,626.318237 588.451050,626.318237
	C563.517212,601.386780 538.821228,576.693237 514.424866,552.299255
	C527.300903,539.423218 539.266968,527.457031 551.498718,515.225220
	C575.575012,539.317444 600.105957,563.864624 625.656006,589.431580
	C625.656006,567.502991 625.656006,547.034058 625.656006,526.000000
	C636.642517,526.000000 647.070923,526.000000 657.999084,526.000000
z"/>
</svg>
