<svg version="1.1" id="Layer_1" xmlns="http://www.w3.org/2000/svg" xmlns:xlink="http://www.w3.org/1999/xlink" x="0px" y="0px" width="100%" viewBox="0 0 800 800" enable-background="new 0 0 800 800" xml:space="preserve">
  <path fill="#000000" opacity="0.000000" stroke="none" d="
M0.999993,624.000000
	C1.000000,416.388641 1.000000,208.777283 1.000000,1.082957
	C267.666656,1.082957 534.333313,1.082957 801.000000,1.082957
	C801.000000,58.438847 801.000000,115.756790 800.721985,173.822754
	C799.098145,173.346451 797.699524,172.174911 796.414062,170.890198
	C757.518494,132.016541 718.628784,93.137062 679.773926,54.222729
	C678.621094,53.068119 677.853210,51.529087 677.163818,50.539494
	C664.399780,63.214191 652.449036,75.081268 638.885620,88.549744
	C659.774841,109.419830 680.846191,130.471848 701.477844,151.084656
	C618.897217,151.084656 535.146606,151.084656 451.199951,151.084656
	C451.199951,167.799866 451.199951,184.203125 451.199951,200.990234
	C535.436218,200.990234 619.473816,200.990234 703.458679,200.990234
	C682.026123,222.402191 660.758118,243.649750 640.363953,264.024292
	C652.913269,276.586456 664.868103,288.553497 676.964905,300.662689
	C677.802490,299.792908 679.050354,298.454010 680.343567,297.160553
	C718.989380,258.508209 757.632202,219.852997 796.320740,181.243469
	C797.642761,179.924133 799.429688,179.070618 801.000000,178.000000
	C801.000000,385.611328 801.000000,593.222656 801.000000,800.916992
	C534.333313,800.916992 267.666687,800.916992 1.000000,800.916992
	C1.000000,743.561279 1.000000,686.243286 1.355443,628.463928
	C3.092354,629.119812 4.588565,630.122192 5.838619,631.370972
	C44.618637,670.111694 83.373566,708.877380 122.138756,747.632874
	C123.390533,748.884399 124.709122,750.069092 125.793259,751.092957
	C137.964828,738.931152 149.820343,727.085144 162.465591,714.450073
	C141.357559,693.353088 120.120819,672.127502 98.865929,650.883789
	C182.594818,650.883789 266.636383,650.883789 350.766235,650.883789
	C350.766235,634.127441 350.766235,617.726013 350.766235,600.951904
	C266.510895,600.951904 182.488373,600.951904 98.374260,600.951904
	C119.875748,579.476440 141.145020,558.232849 161.493744,537.908752
	C149.035248,525.436096 137.086136,513.473389 124.896851,501.270172
	C124.098801,502.150482 122.924225,503.561798 121.631577,504.855072
	C82.998230,543.506836 44.360607,582.154297 5.678527,620.757202
	C4.356730,622.076355 2.570013,622.929565 0.999993,624.000000
z"/>
  <path fill="#000000" opacity="1.000000" stroke="none" d="
M801.000000,177.600006
	C799.429688,179.070618 797.642761,179.924133 796.320740,181.243469
	C757.632202,219.852997 718.989380,258.508209 680.343567,297.160553
	C679.050354,298.454010 677.802490,299.792908 676.964905,300.662689
	C664.868103,288.553497 652.913269,276.586456 640.363953,264.024292
	C660.758118,243.649750 682.026123,222.402191 703.458679,200.990234
	C619.473816,200.990234 535.436218,200.990234 451.199951,200.990234
	C451.199951,184.203125 451.199951,167.799866 451.199951,151.084656
	C535.146606,151.084656 618.897217,151.084656 701.477844,151.084656
	C680.846191,130.471848 659.774841,109.419830 638.885620,88.549744
	C652.449036,75.081268 664.399780,63.214191 677.163818,50.539494
	C677.853210,51.529087 678.621094,53.068119 679.773926,54.222729
	C718.628784,93.137062 757.518494,132.016541 796.414062,170.890198
	C797.699524,172.174911 799.098145,173.346451 800.721985,174.285370
	C801.000000,175.066666 801.000000,176.133347 801.000000,177.600006
z"/>
  <path fill="#000000" opacity="1.000000" stroke="none" d="
M0.999993,624.399963
	C2.570013,622.929565 4.356730,622.076355 5.678527,620.757202
	C44.360607,582.154297 82.998230,543.506836 121.631577,504.855072
	C122.924225,503.561798 124.098801,502.150482 124.896851,501.270172
	C137.086136,513.473389 149.035248,525.436096 161.493744,537.908752
	C141.145020,558.232849 119.875748,579.476440 98.374260,600.951904
	C182.488373,600.951904 266.510895,600.951904 350.766235,600.951904
	C350.766235,617.726013 350.766235,634.127441 350.766235,650.883789
	C266.636383,650.883789 182.594818,650.883789 98.865929,650.883789
	C120.120819,672.127502 141.357559,693.353088 162.465591,714.450073
	C149.820343,727.085144 137.964828,738.931152 125.793259,751.092957
	C124.709122,750.069092 123.390533,748.884399 122.138756,747.632874
	C83.373566,708.877380 44.618637,670.111694 5.838619,631.370972
	C4.588565,630.122192 3.092354,629.119812 1.355443,628.001282
	C1.000000,626.933289 1.000000,625.866638 0.999993,624.399963
z"/>
</svg>
