<svg version="1.1" id="Layer_1" xmlns="http://www.w3.org/2000/svg" xmlns:xlink="http://www.w3.org/1999/xlink" x="0px" y="0px" width="100%" viewBox="0 0 800 800" enable-background="new 0 0 800 800" xml:space="preserve">
  <path fill="#000000" opacity="0.000000" stroke="none" d="
M801.000000,478.000000
	C801.000000,585.630920 801.000000,693.261841 801.000000,800.936523
	C534.333313,800.936523 267.666656,800.936523 1.000000,800.936523
	C1.000000,743.558716 1.000000,686.244385 1.355446,628.466309
	C3.095426,629.122864 4.594703,630.128235 5.847824,631.380066
	C44.629677,670.122437 83.397820,708.878601 122.102417,747.698059
	C123.349007,748.948303 123.906334,750.885803 124.602966,752.167969
	C137.943314,738.895020 149.820938,727.077454 162.526505,714.436096
	C141.382294,693.302185 120.149117,672.079407 98.898361,650.838989
	C119.291321,650.838989 140.019699,650.838989 160.732895,650.838989
	C160.732895,634.061035 160.732895,617.658691 160.732895,600.846619
	C139.776764,600.846619 119.084351,600.846619 98.391945,600.846619
	C99.104897,598.859253 100.493515,597.964355 101.637039,596.823730
	C120.393570,578.114685 139.020920,559.274353 157.938721,540.730225
	C161.511032,537.228455 161.124695,535.342590 157.780487,532.134399
	C147.923248,522.678345 138.392990,512.881653 128.716507,503.236603
	C127.825371,502.348358 126.803902,501.590881 125.559639,500.531433
	C124.101868,502.142426 122.929558,503.556030 121.636864,504.849335
	C83.001991,543.503113 44.362598,582.152344 5.678756,620.757080
	C4.356894,622.076233 2.570090,622.929565 0.999999,624.000000
	C1.000000,525.643311 1.000000,427.286682 1.355445,328.466309
	C3.095705,329.123108 4.595284,330.128784 5.848658,331.380890
	C44.639027,370.131439 83.416199,408.895264 122.126076,447.726135
	C123.370338,448.974274 123.886841,450.947876 124.826591,452.743835
	C136.948975,440.592102 147.304810,429.977020 157.960495,419.672028
	C161.169250,416.568848 161.587006,414.847809 158.103363,411.435211
	C139.175476,392.893463 120.553123,374.039978 101.789680,355.329834
	C100.566422,354.110016 99.043701,353.190521 97.660286,352.131348
	C97.945755,351.727325 98.231232,351.323334 98.516708,350.919342
	C119.238579,350.919342 139.960449,350.919342 160.761719,350.919342
	C160.761719,334.124481 160.761719,317.719971 160.761719,300.906219
	C139.825623,300.906219 119.123734,300.906219 97.271713,300.906219
	C99.250946,299.070801 100.465126,298.015808 101.600189,296.881653
	C120.462219,278.034424 139.238052,259.099762 158.243149,240.398056
	C161.442719,237.249573 161.279358,235.532135 158.157806,232.530899
	C148.308990,223.061661 138.774567,213.265610 129.102524,203.612000
	C128.088470,202.599854 126.968521,201.693771 125.586151,200.460556
	C124.114349,202.103424 122.954178,203.529037 121.661591,204.822296
	C83.019516,243.485489 44.371723,282.142975 5.679698,320.756165
	C4.357508,322.075623 2.570405,322.929260 1.000003,324.000000
	C1.000000,216.369110 1.000000,108.738205 1.000000,1.063366
	C267.666656,1.063366 534.333313,1.063366 801.000000,1.063366
	C801.000000,58.441147 801.000000,115.755562 800.721985,173.820343
	C799.095459,173.343903 797.694214,172.169907 796.406189,170.882568
	C757.522095,132.019989 718.637268,93.158127 679.828430,54.220406
	C678.595215,52.983097 678.162598,50.947865 677.622375,49.832920
	C664.158813,63.294033 652.329468,75.121208 639.564209,87.884163
	C660.552612,108.867867 681.766907,130.077408 702.917664,151.223389
	C682.667725,151.223389 661.934387,151.223389 641.289490,151.223389
	C641.289490,167.988098 641.289490,184.388962 641.289490,201.199677
	C662.261230,201.199677 682.946289,201.199677 704.393127,201.199677
	C683.907898,221.656372 664.077698,241.585312 644.056824,261.320831
	C640.916382,264.416504 640.289429,266.162659 643.879089,269.554413
	C653.925049,279.046387 663.516296,289.019318 673.305664,298.783752
	C674.191345,299.667175 675.211609,300.415619 676.432495,301.449554
	C677.909363,299.828308 679.089783,298.423004 680.382385,297.129791
	C719.011658,258.483276 757.644531,219.840424 796.321960,181.242279
	C797.643616,179.923325 799.430176,179.070236 801.000000,178.000000
	C801.000000,276.356659 801.000000,374.713318 800.721985,473.820343
	C799.095215,473.343597 797.693665,472.169312 796.405334,470.881653
	C757.512634,432.010956 718.625793,393.134369 679.773865,354.222992
	C678.621033,353.068420 677.852905,351.529816 676.647644,349.800415
	C665.046204,361.418793 654.468750,372.226440 643.611938,382.745697
	C640.589722,385.673920 640.664185,387.337616 643.628601,390.261841
	C662.726501,409.100525 681.636963,428.129425 700.603760,447.101013
	C701.697266,448.194763 702.745178,449.333984 704.475220,451.143188
	C682.720337,451.143188 661.993408,451.143188 641.260742,451.143188
	C641.260742,467.924927 641.260742,484.327728 641.260742,501.140198
	C662.212341,501.140198 682.906799,501.140198 703.601257,501.140198
	C702.914368,503.147858 701.515869,504.028442 700.374451,505.166809
	C681.615723,523.875488 662.986389,542.715515 644.069641,561.262573
	C640.511841,564.750854 640.851501,566.639465 644.211426,569.859009
	C653.954102,579.194580 663.362671,588.878601 672.918457,598.409729
	C673.928040,599.416687 675.044495,600.316406 676.399170,601.521973
	C677.894897,599.865906 679.064941,598.449951 680.357666,597.156616
	C718.994080,558.500793 757.635376,519.849731 796.321045,481.243164
	C797.642944,479.923889 799.429810,479.070496 801.000000,478.000000
z"/>
  <path fill="#000000" opacity="1.000000" stroke="none" d="
M801.000000,177.600006
	C799.430176,179.070236 797.643616,179.923325 796.321960,181.242279
	C757.644531,219.840424 719.011658,258.483276 680.382385,297.129791
	C679.089783,298.423004 677.909363,299.828308 676.432495,301.449554
	C675.211609,300.415619 674.191345,299.667175 673.305664,298.783752
	C663.516296,289.019318 653.925049,279.046387 643.879089,269.554413
	C640.289429,266.162659 640.916382,264.416504 644.056824,261.320831
	C664.077698,241.585312 683.907898,221.656372 704.393127,201.199677
	C682.946289,201.199677 662.261230,201.199677 641.289490,201.199677
	C641.289490,184.388962 641.289490,167.988098 641.289490,151.223389
	C661.934387,151.223389 682.667725,151.223389 702.917664,151.223389
	C681.766907,130.077408 660.552612,108.867867 639.564209,87.884163
	C652.329468,75.121208 664.158813,63.294033 677.622375,49.832920
	C678.162598,50.947865 678.595215,52.983097 679.828430,54.220406
	C718.637268,93.158127 757.522095,132.019989 796.406189,170.882568
	C797.694214,172.169907 799.095459,173.343903 800.721985,174.285370
	C801.000000,175.066666 801.000000,176.133347 801.000000,177.600006
z"/>
  <path fill="#000000" opacity="1.000000" stroke="none" d="
M0.999999,624.399963
	C2.570090,622.929565 4.356894,622.076233 5.678756,620.757080
	C44.362598,582.152344 83.001991,543.503113 121.636864,504.849335
	C122.929558,503.556030 124.101868,502.142426 125.559639,500.531433
	C126.803902,501.590881 127.825371,502.348358 128.716507,503.236603
	C138.392990,512.881653 147.923248,522.678345 157.780487,532.134399
	C161.124695,535.342590 161.511032,537.228455 157.938721,540.730225
	C139.020920,559.274353 120.393570,578.114685 101.637039,596.823730
	C100.493515,597.964355 99.104897,598.859253 98.391945,600.846619
	C119.084351,600.846619 139.776764,600.846619 160.732895,600.846619
	C160.732895,617.658691 160.732895,634.061035 160.732895,650.838989
	C140.019699,650.838989 119.291321,650.838989 98.898361,650.838989
	C120.149117,672.079407 141.382294,693.302185 162.526505,714.436096
	C149.820938,727.077454 137.943314,738.895020 124.602966,752.167969
	C123.906334,750.885803 123.349007,748.948303 122.102417,747.698059
	C83.397820,708.878601 44.629677,670.122437 5.847824,631.380066
	C4.594703,630.128235 3.095426,629.122864 1.355446,628.001282
	C1.000000,626.933289 1.000000,625.866638 0.999999,624.399963
z"/>
  <path fill="#000000" opacity="1.000000" stroke="none" d="
M1.000003,324.399994
	C2.570405,322.929260 4.357508,322.075623 5.679698,320.756165
	C44.371723,282.142975 83.019516,243.485489 121.661591,204.822296
	C122.954178,203.529037 124.114349,202.103424 125.586151,200.460556
	C126.968521,201.693771 128.088470,202.599854 129.102524,203.612000
	C138.774567,213.265610 148.308990,223.061661 158.157806,232.530899
	C161.279358,235.532135 161.442719,237.249573 158.243149,240.398056
	C139.238052,259.099762 120.462219,278.034424 101.600189,296.881653
	C100.465126,298.015808 99.250946,299.070801 97.271713,300.906219
	C119.123734,300.906219 139.825623,300.906219 160.761719,300.906219
	C160.761719,317.719971 160.761719,334.124481 160.761719,350.919342
	C139.960449,350.919342 119.238579,350.919342 98.516708,350.919342
	C98.231232,351.323334 97.945755,351.727325 97.660286,352.131348
	C99.043701,353.190521 100.566422,354.110016 101.789680,355.329834
	C120.553123,374.039978 139.175476,392.893463 158.103363,411.435211
	C161.587006,414.847809 161.169250,416.568848 157.960495,419.672028
	C147.304810,429.977020 136.948975,440.592102 124.826591,452.743835
	C123.886841,450.947876 123.370338,448.974274 122.126076,447.726135
	C83.416199,408.895264 44.639027,370.131439 5.848658,331.380890
	C4.595284,330.128784 3.095705,329.123108 1.355445,328.001282
	C1.000000,326.933319 1.000000,325.866669 1.000003,324.399994
z"/>
  <path fill="#000000" opacity="1.000000" stroke="none" d="
M801.000000,477.599976
	C799.429810,479.070496 797.642944,479.923889 796.321045,481.243164
	C757.635376,519.849731 718.994080,558.500793 680.357666,597.156616
	C679.064941,598.449951 677.894897,599.865906 676.399170,601.521973
	C675.044495,600.316406 673.928040,599.416687 672.918457,598.409729
	C663.362671,588.878601 653.954102,579.194580 644.211426,569.859009
	C640.851501,566.639465 640.511841,564.750854 644.069641,561.262573
	C662.986389,542.715515 681.615723,523.875488 700.374451,505.166809
	C701.515869,504.028442 702.914368,503.147858 703.601257,501.140198
	C682.906799,501.140198 662.212341,501.140198 641.260742,501.140198
	C641.260742,484.327728 641.260742,467.924927 641.260742,451.143188
	C661.993408,451.143188 682.720337,451.143188 704.475220,451.143188
	C702.745178,449.333984 701.697266,448.194763 700.603760,447.101013
	C681.636963,428.129425 662.726501,409.100525 643.628601,390.261841
	C640.664185,387.337616 640.589722,385.673920 643.611938,382.745697
	C654.468750,372.226440 665.046204,361.418793 676.647644,349.800415
	C677.852905,351.529816 678.621033,353.068420 679.773865,354.222992
	C718.625793,393.134369 757.512634,432.010956 796.405334,470.881653
	C797.693665,472.169312 799.095215,473.343597 800.721985,474.285339
	C801.000000,475.066681 801.000000,476.133331 801.000000,477.599976
z"/>
</svg>
